<svg width="256" height="68" viewBox="0 0 256 68" fill="none" xmlns="http://www.w3.org/2000/svg">
<path d="M49.8566 0H28.2425L73.5842 67.9165L84.8236 51.5858L49.8566 0Z" fill="#8100FE"/>
<path d="M21.6142 0H0L45.3417 67.9165L56.5811 51.5858L21.6142 0Z" fill="#8100FE"/>
<path d="M108.298 67.6765C104.215 67.6765 100.674 66.9141 97.6738 65.3894C94.7227 63.8647 92.4356 61.676 90.8125 58.8232C89.1894 55.9705 88.3779 52.5276 88.3779 48.4945C88.3779 44.4613 89.1894 41.0184 90.8125 38.1657C92.4356 35.3129 94.6981 33.1242 97.6 31.5995C100.551 30.0748 103.92 29.3124 107.707 29.3124C111.593 29.3124 114.888 30.0748 117.594 31.5995C120.348 33.075 122.438 35.1408 123.865 37.7968C125.291 40.4036 126.004 43.4038 126.004 46.7976C126.004 47.6829 125.98 48.5682 125.93 49.4536C125.881 50.3389 125.807 51.0767 125.709 51.6669H96.4934V44.9532H120.176L114.2 47.2402C114.2 44.2892 113.659 42.0267 112.577 40.4528C111.544 38.8788 109.921 38.0919 107.707 38.0919C106.134 38.0919 104.781 38.4608 103.65 39.1985C102.568 39.9363 101.732 41.0922 101.141 42.6661C100.6 44.24 100.33 46.2565 100.33 48.7158C100.33 51.1258 100.649 53.0932 101.289 54.618C101.928 56.0935 102.838 57.1756 104.019 57.8641C105.199 58.5035 106.625 58.8232 108.298 58.8232C110.167 58.8232 111.642 58.4544 112.724 57.7166C113.856 56.9788 114.692 55.9459 115.233 54.618L125.266 57.9379C124.578 60.0529 123.373 61.8481 121.651 63.3237C119.979 64.75 117.963 65.8321 115.602 66.5698C113.29 67.3076 110.855 67.6765 108.298 67.6765Z" fill="#8100FE"/>
<path d="M154.49 67.6765C152.08 67.6765 149.94 67.1355 148.071 66.0534C146.251 64.9713 144.751 63.4958 143.571 61.6268C142.39 59.7086 141.628 57.5444 141.284 55.1344L142.464 53.5851L141.8 66.9387H130.807V14.4094H143.349V41.6332L142.169 39.8625C142.857 36.8131 144.259 34.3047 146.374 32.3373C148.489 30.3207 151.342 29.3124 154.932 29.3124C157.785 29.3124 160.318 30.0748 162.531 31.5995C164.794 33.1242 166.54 35.3375 167.77 38.2394C169.048 41.0922 169.688 44.5597 169.688 48.642C169.688 52.626 169.048 56.0443 167.77 58.897C166.491 61.7497 164.72 63.9385 162.458 65.4632C160.195 66.9387 157.539 67.6765 154.49 67.6765ZM150.137 58.4544C152.301 58.4544 153.998 57.6674 155.227 56.0935C156.457 54.4704 157.072 51.9374 157.072 48.4945C157.072 45.0515 156.457 42.5431 155.227 40.9692C153.998 39.3461 152.301 38.5345 150.137 38.5345C148.71 38.5345 147.481 38.9526 146.448 39.7888C145.464 40.5757 144.702 41.707 144.161 43.1825C143.62 44.658 143.349 46.4533 143.349 48.5682C143.349 50.6832 143.62 52.4784 144.161 53.954C144.702 55.4295 145.489 56.5608 146.522 57.3477C147.555 58.0855 148.76 58.4544 150.137 58.4544Z" fill="#8100FE"/>
<path d="M198.531 67.6765C196.121 67.6765 193.982 67.1355 192.113 66.0534C190.293 64.9713 188.793 63.4958 187.612 61.6268C186.432 59.7086 185.669 57.5444 185.325 55.1344L186.505 53.5851L185.841 66.9387H174.849V14.4094H187.391V41.6332L186.21 39.8625C186.899 36.8131 188.301 34.3047 190.416 32.3373C192.531 30.3207 195.383 29.3124 198.974 29.3124C201.827 29.3124 204.36 30.0748 206.573 31.5995C208.835 33.1242 210.581 35.3375 211.811 38.2394C213.09 41.0922 213.729 44.5597 213.729 48.642C213.729 52.626 213.09 56.0443 211.811 58.897C210.532 61.7497 208.762 63.9385 206.499 65.4632C204.237 66.9387 201.581 67.6765 198.531 67.6765ZM194.178 58.4544C196.342 58.4544 198.039 57.6674 199.269 56.0935C200.499 54.4704 201.113 51.9374 201.113 48.4945C201.113 45.0515 200.499 42.5431 199.269 40.9692C198.039 39.3461 196.342 38.5345 194.178 38.5345C192.752 38.5345 191.522 38.9526 190.489 39.7888C189.506 40.5757 188.743 41.707 188.202 43.1825C187.661 44.658 187.391 46.4533 187.391 48.5682C187.391 50.6832 187.661 52.4784 188.202 53.954C188.743 55.4295 189.53 56.5608 190.563 57.3477C191.596 58.0855 192.801 58.4544 194.178 58.4544Z" fill="#8100FE"/>
<path d="M236.449 29.3124C240.335 29.3124 243.728 30.0748 246.63 31.5995C249.581 33.075 251.869 35.2638 253.492 38.1657C255.164 41.0184 256 44.4613 256 48.4945C256 52.5276 255.164 55.9951 253.492 58.897C251.869 61.7497 249.581 63.9385 246.63 65.4632C243.728 66.9387 240.335 67.6765 236.449 67.6765C232.662 67.6765 229.293 66.9387 226.342 65.4632C223.391 63.9385 221.079 61.7497 219.407 58.897C217.783 55.9951 216.972 52.5276 216.972 48.4945C216.972 44.4613 217.783 41.0184 219.407 38.1657C221.079 35.2638 223.391 33.075 226.342 31.5995C229.293 30.0748 232.662 29.3124 236.449 29.3124ZM236.449 38.2394C235.023 38.2394 233.793 38.5837 232.76 39.2723C231.727 39.9609 230.94 41.0676 230.399 42.5923C229.858 44.117 229.588 46.0844 229.588 48.4945C229.588 50.9045 229.858 52.8719 230.399 54.3966C230.94 55.8722 231.727 56.9788 232.76 57.7166C233.793 58.4052 235.023 58.7495 236.449 58.7495C237.925 58.7495 239.179 58.4052 240.212 57.7166C241.245 56.9788 242.032 55.8722 242.573 54.3966C243.114 52.8719 243.384 50.9045 243.384 48.4945C243.384 46.0844 243.114 44.117 242.573 42.5923C242.032 41.0676 241.245 39.9609 240.212 39.2723C239.179 38.5837 237.925 38.2394 236.449 38.2394Z" fill="#8100FE"/>
</svg>
